{"title":"The Mortal Instruments City of Bones (2013) NEW SOURCE CAM XViD ","uid":8921903,"size":1518096723,"categoryP":"video","categoryS":"movies","magnet":"?xt=urn:btih:b42b1255034377938daf01ea6bcb78fff0afc4a0&amp;dn=The+Mortal+Instruments+City+of+Bones+%282013%29+NEW+SOURCE+CAM+XViD+&amp;tr=udp%3A%2F%2Ftracker.openbittorrent.com%3A80&amp;tr=udp%3A%2F%2Fopen.demonii.com%3A1337&amp;tr=udp%3A%2F%2Ftracker.coppersurfer.tk%3A6969&amp;tr=udp%3A%2F%2Fexodus.desync.com%3A6969","seeders":8,"leechers":0,"uploader":"xxxlavalxxx","files":-1,"time":1379273305,"description":" &lt;a href=&quot;http://www.imdb.com/title/tt1538403/&quot; rel=&quot;nofollow&quot; target=&quot;_NEW&quot;&gt;http://www.imdb.com/title/tt1538403/&lt;/a&gt;\n\n\n\nWhen her mother disappears, Clary Fray learns that she descends from a line of warriors who protect our world from demons. She joins forces with others like her and heads into a dangerous alternate New York called Downworld. \n\n\n\nDirector:\n Harald Zwart \n\nWriters:\n Jessica Postigo (screenplay), Cassandra Clare (based on the novel by) \n\nStars:\n Lily Collins, Jamie Campbell Bower, Robert Sheehan\n\nGenres:\n  Action |  Adventure |  Drama |  Fantasy |  Mystery |  Romance \n\nCountry:\n USA | Germany \n\nLanguage:\n English \n\n\n\nFormat                                   : AVI\n Format/Info                              : Audio Video Interleave\n File size                                : 1.40 GiB\n Duration                                 : 2h 2mn\n Overall bit rate                         : 1 625 Kbps\n Writing application                      : VirtualDubMod 1.5.10.2 (build 2540/release)\n Writing library                          : VirtualDubMod build 2540/release\n\n Video\n ID                                       : 0\n Format                                   : MPEG-4 Visual\n Format profile                           : Advanced Simple@L5\n Format settings, BVOP                    : 2\n Format settings, QPel                    : No\n Format settings, GMC                     : No warppoints\n Format settings, Matrix                  : Default (H.263)\n Muxing mode                              : Packed bitstream\n Codec ID                                 : XVID\n Codec ID/Hint                            : XviD\n Duration                                 : 2h 2mn\n Bit rate                                 : 1 487 Kbps\n Width                                    : 692 pixels\n Height                                   : 304 pixels\n Display aspect ratio                     : 2.25:1\n Frame rate                               : 23.976 fps\n Color space                              : YUV\n Chroma subsampling                       : 4:2:0\n Bit depth                                : 8 bits\n Scan type                                : Progressive\n Compression mode                         : Lossy\n Bits/(Pixel*Frame)                       : 0.295\n Stream size                              : 1.28 GiB (92%)\n Writing library                          : XviD 64\n\n Audio\n ID                                       : 1\n Format                                   : MPEG Audio\n Format version                           : Version 1\n Format profile                           : Layer 3\n Mode                                     : Joint stereo\n Mode extension                           : MS Stereo\n Codec ID                                 : 55\n Codec ID/Hint                            : MP3\n Duration                                 : 2h 2mn\n Bit rate mode                            : Constant\n Bit rate                                 : 128 Kbps\n Channel(s)                               : 2 channels\n Sampling rate                            : 48.0 KHz\n Compression mode                         : Lossy\n Stream size                              : 113 MiB (8%)\n Alignment                                : Aligned on interleaves\n Interleave, duration                     : 42 ms (1.00 video frame)\n Interleave, preload duration             : 504 ms\n\n\nSource Used    \n\n\n Video .............LATiNO / Thanks\n\n Audio ..............KiNGofJeFFs / Thanks :bow:\n\n\n\n &lt;a href=&quot;\nhttp://bayimg.com/BAPjmaaeJ&quot; rel=&quot;nofollow&quot; target=&quot;_NEW&quot;&gt;\nhttp://bayimg.com/BAPjmaaeJ&lt;/a&gt; &lt;a href=&quot;\nhttp://bayimg.com/BaPjOaaeJ&quot; rel=&quot;nofollow&quot; target=&quot;_NEW&quot;&gt;\nhttp://bayimg.com/BaPjOaaeJ&lt;/a&gt;","torrent":{"xt":"urn:btih:b42b1255034377938daf01ea6bcb78fff0afc4a0","amp;dn":"The+Mortal+Instruments+City+of+Bones+%282013%29+NEW+SOURCE+CAM+XViD+","amp;tr":["udp%3A%2F%2Ftracker.openbittorrent.com%3A80","udp%3A%2F%2Fopen.demonii.com%3A1337","udp%3A%2F%2Ftracker.coppersurfer.tk%3A6969","udp%3A%2F%2Fexodus.desync.com%3A6969"],"infoHash":"b42b1255034377938daf01ea6bcb78fff0afc4a0","infoHashBuffer":{"type":"Buffer","data":[180,43,18,85,3,67,119,147,141,175,1,234,107,203,120,255,240,175,196,160]},"announce":[],"urlList":[]}}